<svg width="25" height="24" viewBox="0 0 25 24" fill="none" xmlns="http://www.w3.org/2000/svg">
    <path
        d="M20.8333 4.5H8.33333C7.75833 4.5 7.30833 4.79167 7.00833 5.23333L2.5 12L7.00833 18.7583C7.30833 19.2 7.81667 19.5 8.39167 19.5H20.8333C21.75 19.5 22.5 18.75 22.5 17.8333V6.16667C22.5 5.25 21.75 4.5 20.8333 4.5ZM10 13.25C9.30833 13.25 8.75 12.6917 8.75 12C8.75 11.3083 9.30833 10.75 10 10.75C10.6917 10.75 11.25 11.3083 11.25 12C11.25 12.6917 10.6917 13.25 10 13.25ZM14.1667 13.25C13.475 13.25 12.9167 12.6917 12.9167 12C12.9167 11.3083 13.475 10.75 14.1667 10.75C14.8583 10.75 15.4167 11.3083 15.4167 12C15.4167 12.6917 14.8583 13.25 14.1667 13.25ZM18.3333 13.25C17.6417 13.25 17.0833 12.6917 17.0833 12C17.0833 11.3083 17.6417 10.75 18.3333 10.75C19.025 10.75 19.5833 11.3083 19.5833 12C19.5833 12.6917 19.025 13.25 18.3333 13.25Z"
        fill="#E28DA0" />
</svg>